<svg id="visual" viewBox="0 0 900 600" width="900" height="600" xmlns="http://www.w3.org/2000/svg" xmlns:xlink="http://www.w3.org/1999/xlink" version="1.1"><rect x="0" y="0" width="900" height="600" fill="#002233"></rect><path d="M0 423L11.5 415.2C23 407.3 46 391.7 69 403.7C92 415.7 115 455.3 138.2 473.5C161.3 491.7 184.7 488.3 207.8 480.2C231 472 254 459 277 440.7C300 422.3 323 398.7 346 399.2C369 399.7 392 424.3 415.2 433.5C438.3 442.7 461.7 436.3 484.8 425.7C508 415 531 400 554 391.7C577 383.3 600 381.7 623 402C646 422.3 669 464.7 692.2 470.5C715.3 476.3 738.7 445.7 761.8 436.8C785 428 808 441 831 434.8C854 428.7 877 403.3 888.5 390.7L900 378L900 601L888.5 601C877 601 854 601 831 601C808 601 785 601 761.8 601C738.7 601 715.3 601 692.2 601C669 601 646 601 623 601C600 601 577 601 554 601C531 601 508 601 484.8 601C461.7 601 438.3 601 415.2 601C392 601 369 601 346 601C323 601 300 601 277 601C254 601 231 601 207.8 601C184.7 601 161.3 601 138.2 601C115 601 92 601 69 601C46 601 23 601 11.5 601L0 601Z" fill="#0066FF" stroke-linecap="round" stroke-linejoin="miter"></path></svg>