<svg id="visual" viewBox="0 0 900 600" width="900" height="600" xmlns="http://www.w3.org/2000/svg" xmlns:xlink="http://www.w3.org/1999/xlink" version="1.1"><rect x="0" y="0" width="900" height="600" fill="#001220"></rect><path d="M0 410L13.7 408.7C27.3 407.3 54.7 404.7 82 412.7C109.3 420.7 136.7 439.3 163.8 445.2C191 451 218 444 245.2 434.5C272.3 425 299.7 413 327 414C354.3 415 381.7 429 409 435.2C436.3 441.3 463.7 439.7 491 439C518.3 438.3 545.7 438.7 573 433.3C600.3 428 627.7 417 654.8 421C682 425 709 444 736.2 447.3C763.3 450.7 790.7 438.3 818 435.3C845.3 432.3 872.7 438.7 886.3 441.8L900 445L900 601L886.3 601C872.7 601 845.3 601 818 601C790.7 601 763.3 601 736.2 601C709 601 682 601 654.8 601C627.7 601 600.3 601 573 601C545.7 601 518.3 601 491 601C463.7 601 436.3 601 409 601C381.7 601 354.3 601 327 601C299.7 601 272.3 601 245.2 601C218 601 191 601 163.8 601C136.7 601 109.3 601 82 601C54.7 601 27.3 601 13.7 601L0 601Z" fill="#fa7268"></path><path d="M0 499L13.7 501.7C27.3 504.3 54.7 509.7 82 503.8C109.3 498 136.7 481 163.8 470.2C191 459.3 218 454.7 245.2 459.8C272.3 465 299.7 480 327 490.2C354.3 500.3 381.7 505.7 409 498.2C436.3 490.7 463.7 470.3 491 464C518.3 457.7 545.7 465.3 573 473.8C600.3 482.3 627.7 491.7 654.8 496.2C682 500.7 709 500.3 736.2 501.7C763.3 503 790.7 506 818 500.7C845.3 495.3 872.7 481.7 886.3 474.8L900 468L900 601L886.3 601C872.7 601 845.3 601 818 601C790.7 601 763.3 601 736.2 601C709 601 682 601 654.8 601C627.7 601 600.3 601 573 601C545.7 601 518.3 601 491 601C463.7 601 436.3 601 409 601C381.7 601 354.3 601 327 601C299.7 601 272.3 601 245.2 601C218 601 191 601 163.8 601C136.7 601 109.3 601 82 601C54.7 601 27.3 601 13.7 601L0 601Z" fill="#eb5967"></path><path d="M0 542L13.7 537.5C27.3 533 54.7 524 82 521.2C109.3 518.3 136.7 521.7 163.8 516.8C191 512 218 499 245.2 498.2C272.3 497.3 299.7 508.7 327 514.3C354.3 520 381.7 520 409 519.7C436.3 519.3 463.7 518.7 491 520C518.3 521.3 545.7 524.7 573 520.3C600.3 516 627.7 504 654.8 499.5C682 495 709 498 736.2 502.7C763.3 507.3 790.7 513.7 818 512.7C845.3 511.7 872.7 503.3 886.3 499.2L900 495L900 601L886.3 601C872.7 601 845.3 601 818 601C790.7 601 763.3 601 736.2 601C709 601 682 601 654.8 601C627.7 601 600.3 601 573 601C545.7 601 518.3 601 491 601C463.7 601 436.3 601 409 601C381.7 601 354.3 601 327 601C299.7 601 272.3 601 245.2 601C218 601 191 601 163.8 601C136.7 601 109.3 601 82 601C54.7 601 27.3 601 13.7 601L0 601Z" fill="#da3f67"></path><path d="M0 533L13.7 534.5C27.3 536 54.7 539 82 543.5C109.3 548 136.7 554 163.8 557.5C191 561 218 562 245.2 559.5C272.3 557 299.7 551 327 548.7C354.3 546.3 381.7 547.7 409 547.5C436.3 547.3 463.7 545.7 491 547.3C518.3 549 545.7 554 573 555.8C600.3 557.7 627.7 556.3 654.8 556.7C682 557 709 559 736.2 555C763.3 551 790.7 541 818 535.7C845.3 530.3 872.7 529.7 886.3 529.3L900 529L900 601L886.3 601C872.7 601 845.3 601 818 601C790.7 601 763.3 601 736.2 601C709 601 682 601 654.8 601C627.7 601 600.3 601 573 601C545.7 601 518.3 601 491 601C463.7 601 436.3 601 409 601C381.7 601 354.3 601 327 601C299.7 601 272.3 601 245.2 601C218 601 191 601 163.8 601C136.7 601 109.3 601 82 601C54.7 601 27.3 601 13.7 601L0 601Z" fill="#c62368"></path></svg>