<svg id="visual" viewBox="0 0 900 600" width="900" height="600" xmlns="http://www.w3.org/2000/svg" xmlns:xlink="http://www.w3.org/1999/xlink" version="1.1"><path d="M0 223L82 103L164 199L245 85L327 139L409 151L491 199L573 109L655 169L736 127L818 157L900 97L900 0L818 0L736 0L655 0L573 0L491 0L409 0L327 0L245 0L164 0L82 0L0 0Z" fill="#00cc8e"></path><path d="M0 307L82 223L164 253L245 181L327 247L409 217L491 247L573 163L655 283L736 223L818 241L900 139L900 95L818 155L736 125L655 167L573 107L491 197L409 149L327 137L245 83L164 197L82 101L0 221Z" fill="#00b98a"></path><path d="M0 367L82 343L164 343L245 307L327 355L409 343L491 391L573 289L655 349L736 343L818 385L900 283L900 137L818 239L736 221L655 281L573 161L491 245L409 215L327 245L245 179L164 251L82 221L0 305Z" fill="#00a784"></path><path d="M0 547L82 547L164 553L245 505L327 505L409 529L491 553L573 541L655 535L736 523L818 565L900 499L900 281L818 383L736 341L655 347L573 287L491 389L409 341L327 353L245 305L164 341L82 341L0 365Z" fill="#00957c"></path><path d="M0 601L82 601L164 601L245 601L327 601L409 601L491 601L573 601L655 601L736 601L818 601L900 601L900 497L818 563L736 521L655 533L573 539L491 551L409 527L327 503L245 503L164 551L82 545L0 545Z" fill="#038373"></path></svg>