<svg id="visual" viewBox="0 0 900 600" width="900" height="600" xmlns="http://www.w3.org/2000/svg" xmlns:xlink="http://www.w3.org/1999/xlink" version="1.1"><rect x="0" y="0" width="900" height="600" fill="#0066FF"></rect><path d="M0 477L11.5 485.8C23 494.7 46 512.3 69 515.7C92 519 115 508 138.2 501.3C161.3 494.7 184.7 492.3 207.8 485C231 477.7 254 465.3 277 464.8C300 464.3 323 475.7 346 482.5C369 489.3 392 491.7 415.2 481.3C438.3 471 461.7 448 484.8 455.3C508 462.7 531 500.3 554 508.8C577 517.3 600 496.7 623 480.3C646 464 669 452 692.2 460.8C715.3 469.7 738.7 499.3 761.8 510.3C785 521.3 808 513.7 831 502.7C854 491.7 877 477.3 888.5 470.2L900 463L900 601L888.5 601C877 601 854 601 831 601C808 601 785 601 761.8 601C738.7 601 715.3 601 692.2 601C669 601 646 601 623 601C600 601 577 601 554 601C531 601 508 601 484.8 601C461.7 601 438.3 601 415.2 601C392 601 369 601 346 601C323 601 300 601 277 601C254 601 231 601 207.8 601C184.7 601 161.3 601 138.2 601C115 601 92 601 69 601C46 601 23 601 11.5 601L0 601Z" fill="#009473" stroke-linecap="round" stroke-linejoin="miter"></path></svg>